<?xml version="1.0"?>
<svg width="394.4" height="394.401" xmlns="http://www.w3.org/2000/svg">

 <g>
  <title>background</title>
  <rect fill="none" id="canvas_background" height="402" width="582" y="-1" x="-1"/>
 </g>
 <g>
  <title>Layer 1</title>
  <g id="svg_1">
   <path stroke="#000" fill="#fff" id="svg_2" d="m197.199997,0c-108.907997,0 -197.199997,88.292 -197.199997,197.201004c0,108.908005 88.292,197.19899 197.199997,197.19899c108.909012,0 197.199997,-88.290985 197.199997,-197.199005c0,-108.908989 -88.290985,-197.200989 -197.199997,-197.200989zm0,362.005005c-91.017998,0 -164.804993,-73.787018 -164.804993,-164.804993c0,-91.018997 73.787003,-164.804993 164.804993,-164.804993c91.018997,0 164.806015,73.787003 164.806015,164.804993c0,91.017975 -73.787018,164.804993 -164.806015,164.804993zm74.432999,-169.932007c6.31601,-8.914993 10.083984,-20.074005 10.083984,-32.197998c0,-29.172012 -21.759979,-52.821999 -48.59198,-52.821999c-2.14801,0 -4.76001,0 -7.746002,0l0,-40.848c0,-2.326 -1.904007,-4.223 -4.223007,-4.223l-14.095993,0c-2.326004,0 -4.223007,1.903999 -4.223007,4.223l0,40.848l-22.535995,0l0,-40.848c0,-2.326 -1.903992,-4.223 -4.222992,-4.223l-14.083008,0c-2.326004,0 -4.222992,1.903999 -4.222992,4.223l0,40.848l-46.485008,0c-2.333,0 -4.223,1.889999 -4.223,4.223l0,14.225998c0,2.176003 1.625,4.059998 3.793999,4.257004c15.872002,1.455002 24.377998,12.104004 24.377998,25.186996l0,87.333008c0,11.770996 -6.072998,21.112991 -19.345993,22.391983c-1.884003,0.184021 -3.448006,1.52301 -3.801003,3.387024l-2.693001,14.360992c-0.483002,2.562988 1.488998,4.937988 4.100998,4.937988l44.261002,0l0,40.848022c0,2.324982 1.904007,4.222992 4.223007,4.222992l14.082993,0c2.324997,0 4.223007,-1.904022 4.223007,-4.222992l0,-40.848022l22.535995,0l0,40.848022c0,2.324982 1.903992,4.222992 4.222992,4.222992l14.082001,0c2.326004,0 4.223007,-1.904022 4.223007,-4.222992l0,-40.848022c7.983994,0 14.612991,0 19.013992,0c26.839996,0 48.59201,-23.330994 48.59201,-52.11499c0.027008,-17.968002 -8.437012,-33.798004 -21.324005,-43.169006zm-91.337997,-51.218002c0,0 21.671005,0 34.509003,0c12.839996,0 23.242004,10.404007 23.242004,23.242996c0,12.837997 -10.402008,23.242004 -23.242004,23.242004c-12.837997,0 -34.509003,0 -34.509003,0l0,-46.485001zm45.777008,114.098007c-12.837997,0 -45.776993,0 -45.776993,0l0,-46.483994c0,0 32.938995,0 45.776993,0c12.839996,0 23.242004,10.403 23.242004,23.241989c-0.000015,12.837006 -10.402008,23.242004 -23.242004,23.242004z"/>
  </g>
  <g id="svg_3"/>
  <g id="svg_4"/>
  <g id="svg_5"/>
  <g id="svg_6"/>
  <g id="svg_7"/>
  <g id="svg_8"/>
  <g id="svg_9"/>
  <g id="svg_10"/>
  <g id="svg_11"/>
  <g id="svg_12"/>
  <g id="svg_13"/>
  <g id="svg_14"/>
  <g id="svg_15"/>
  <g id="svg_16"/>
  <g id="svg_17"/>
 </g>
</svg>