<?xml version="1.0" encoding="iso-8859-1"?>
<!-- Generator: Adobe Illustrator 18.0.0, SVG Export Plug-In . SVG Version: 6.00 Build 0)  -->
<!DOCTYPE svg PUBLIC "-//W3C//DTD SVG 1.1//EN" "http://www.w3.org/Graphics/SVG/1.1/DTD/svg11.dtd">
<svg version="1.1" id="Capa_1" xmlns="http://www.w3.org/2000/svg" xmlns:xlink="http://www.w3.org/1999/xlink" x="0px" y="0px"
	 viewBox="0 0 432.877 432.877" style="enable-background:new 0 0 432.877 432.877;" xml:space="preserve">
<g>
	<path style="fill:#231F20;" d="M430.681,147.832l-14.143-14.143c-1.407-1.407-3.314-2.197-5.304-2.197
		c-1.989,0-3.897,0.79-5.304,2.197l-20.125,20.126v-32.333c0-46.066-37.478-83.544-83.545-83.544H130.615
		c-46.066,0-83.544,37.478-83.544,83.544v74.582c0,4.142,3.357,7.5,7.5,7.5h20c4.143,0,7.5-3.358,7.5-7.5v-74.582
		c0-26.767,21.776-48.544,48.544-48.544h171.646c26.767,0,48.545,21.777,48.545,48.544v32.333l-20.125-20.126
		c-1.407-1.407-3.314-2.197-5.304-2.197c-1.989,0-3.897,0.79-5.304,2.197l-14.143,14.143c-1.406,1.406-2.196,3.314-2.196,5.303
		c0,1.989,0.79,3.897,2.196,5.303l57.071,57.071c1.465,1.464,3.385,2.197,5.304,2.197c1.919,0,3.839-0.732,5.304-2.197
		l57.071-57.071c1.406-1.406,2.196-3.314,2.196-5.303C432.877,151.145,432.087,149.238,430.681,147.832z"/>
	<path style="fill:#231F20;" d="M378.306,229.314h-20c-4.143,0-7.5,3.358-7.5,7.5v74.582c0,26.767-21.777,48.544-48.545,48.544
		H130.615c-26.768,0-48.544-21.777-48.544-48.544v-32.333l20.125,20.125c1.407,1.407,3.315,2.197,5.304,2.197
		c1.989,0,3.896-0.79,5.304-2.197l14.143-14.143c1.406-1.406,2.196-3.314,2.196-5.303c0-1.989-0.79-3.897-2.196-5.303
		l-57.071-57.071c-2.93-2.929-7.678-2.929-10.607,0L2.196,274.439C0.79,275.845,0,277.753,0,279.742c0,1.989,0.79,3.897,2.196,5.303
		l14.143,14.143c1.407,1.407,3.314,2.197,5.304,2.197s3.897-0.79,5.304-2.197l20.125-20.125v32.333
		c0,46.066,37.478,83.544,83.544,83.544h171.646c46.066,0,83.545-37.478,83.545-83.544v-74.582
		C385.806,232.671,382.448,229.314,378.306,229.314z"/>
</g>
<g>
</g>
<g>
</g>
<g>
</g>
<g>
</g>
<g>
</g>
<g>
</g>
<g>
</g>
<g>
</g>
<g>
</g>
<g>
</g>
<g>
</g>
<g>
</g>
<g>
</g>
<g>
</g>
<g>
</g>
</svg>
