<?xml version="1.0" encoding="iso-8859-1"?>
<!-- Generator: Adobe Illustrator 16.0.0, SVG Export Plug-In . SVG Version: 6.00 Build 0)  -->
<!DOCTYPE svg PUBLIC "-//W3C//DTD SVG 1.1//EN" "http://www.w3.org/Graphics/SVG/1.1/DTD/svg11.dtd">
<svg version="1.1" id="Capa_1" xmlns="http://www.w3.org/2000/svg" xmlns:xlink="http://www.w3.org/1999/xlink" x="0px" y="0px"
	 width="251.883px" height="251.882px" viewBox="0 0 251.883 251.882" style="enable-background:new 0 0 251.883 251.882;"
	 xml:space="preserve">
<g>
	<g id="_x31_21">
		<g>
			<path d="M124.943,123.395c-7.442,0.112-37.496,0.178-37.496,11.22c0,11.05,30.054,11.121,37.496,11.223
				c7.435,0.102,37.511-0.31,37.511-11.223C162.449,123.573,132.393,123.507,124.943,123.395z"/>
			<path d="M124.89,150.078c-6.49-0.106-28.666-0.188-37.442-7.246v17.072v13.827l0.041-29.396l0.041,29.625h0.198
				c8.98,6.825,30.747,6.916,37.163,7.018c6.401,0.102,28.119-0.203,37.143-7.018c0,0,0.386-0.325,0.421-0.366l-0.102-30.803
				C153.567,149.87,131.377,150.184,124.89,150.078z"/>
			<path d="M124.89,185.557c-6.49-0.106-28.666-0.188-37.442-7.241v17.072v13.827l0.041-29.401l0.041,29.625h0.198
				c8.98,6.83,30.747,6.916,37.163,7.013c6.401,0.102,28.119-0.192,37.143-7.013c0,0,0.386-0.33,0.421-0.365l-0.102-30.803
				C153.567,185.344,131.377,185.664,124.89,185.557z"/>
			<path d="M124.89,220.189c-6.49-0.106-28.666-0.192-37.442-7.241v17.072v13.822l0.041-29.392l0.041,29.625h0.198
				c8.98,6.825,30.747,6.906,37.163,7.013c6.401,0.106,28.119-0.198,37.143-7.013c0,0,0.386-0.324,0.421-0.365l-0.102-30.798
				C153.567,219.976,131.377,220.296,124.89,220.189z"/>
			<path d="M214.372,23.217c7.434,0.104,37.511-0.308,37.511-11.223c0-11.044-30.057-11.11-37.511-11.215
				c-7.445,0.109-37.496,0.176-37.496,11.215C176.876,23.04,206.927,23.113,214.372,23.217z"/>
			<path d="M214.321,27.455c-6.49-0.104-28.671-0.183-37.445-7.238v17.072v13.82l0.041-29.394l0.045,29.627h0.193
				c8.982,6.827,30.747,6.911,37.166,7.016c6.397,0.104,28.121-0.198,37.14-7.016c0,0,0.386-0.327,0.422-0.363l-0.106-30.803
				C243.001,27.247,220.8,27.564,214.321,27.455z"/>
			<path d="M214.321,62.937c-6.49-0.102-28.671-0.186-37.445-7.241v17.075v13.828l0.041-29.399l0.045,29.628h0.193
				c8.982,6.832,30.747,6.916,37.166,7.01c6.397,0.104,28.121-0.193,37.14-7.01c0,0,0.386-0.328,0.422-0.363l-0.106-30.806
				C243.001,62.729,220.8,63.041,214.321,62.937z"/>
			<path d="M214.321,97.564c-6.49-0.104-28.671-0.188-37.445-7.239v17.072v13.825l0.041-29.394l0.045,29.625h0.193
				c8.982,6.828,30.747,6.909,37.166,7.013c6.397,0.104,28.121-0.196,37.14-7.013c0,0,0.386-0.328,0.422-0.366l-0.106-30.798
				C243.001,97.361,220.8,97.673,214.321,97.564z"/>
			<path d="M37.498,0.78C30.062,0.884,0,0.95,0,11.995c0,11.05,30.056,11.118,37.498,11.223c7.434,0.104,37.511-0.308,37.511-11.223
				C75.009,0.95,44.953,0.884,37.498,0.78z"/>
			<path d="M37.445,27.455C30.955,27.351,8.785,27.272,0,20.216v17.072v13.82l0.043-29.394l0.041,29.627h0.198
				c8.98,6.827,30.747,6.911,37.163,7.016c6.401,0.104,28.127-0.198,37.143-7.016c0,0,0.386-0.327,0.421-0.363l-0.104-30.803
				C66.128,27.247,43.935,27.564,37.445,27.455z"/>
			<path d="M37.445,62.937C30.955,62.835,8.777,62.751,0,55.696v17.075v13.828l0.043-29.399l0.041,29.628h0.198
				c8.98,6.832,30.747,6.916,37.163,7.01c6.401,0.104,28.127-0.193,37.143-7.01c0,0,0.386-0.328,0.421-0.363l-0.104-30.806
				C66.128,62.729,43.935,63.041,37.445,62.937z"/>
			<path d="M37.445,97.564C30.955,97.459,8.777,97.375,0,90.325v17.072v13.825l0.043-29.394l0.041,29.625h0.198
				c8.98,6.828,30.747,6.909,37.163,7.013c6.401,0.104,28.127-0.196,37.143-7.013c0,0,0.386-0.328,0.421-0.366L74.905,90.29
				C66.128,97.361,43.935,97.673,37.445,97.564z"/>
			<polygon points="62.294,159.365 34.646,145.847 26.515,176.813 39.88,170.293 56.274,203.889 65.315,199.471 48.926,165.885 			
				"/>
			<polygon points="216.606,149.25 200.214,182.846 186.849,176.326 194.979,207.296 222.628,193.784 209.258,187.263 
				225.645,153.667 			"/>
			<polygon points="136.171,87.035 160.448,66.141 136.171,47.228 136.171,62.102 98.792,62.102 98.792,72.168 136.171,72.168 			
				"/>
		</g>
	</g>
</g>
<g>
</g>
<g>
</g>
<g>
</g>
<g>
</g>
<g>
</g>
<g>
</g>
<g>
</g>
<g>
</g>
<g>
</g>
<g>
</g>
<g>
</g>
<g>
</g>
<g>
</g>
<g>
</g>
<g>
</g>
</svg>
