<?xml version="1.0" encoding="iso-8859-1"?>
<!-- Generator: Adobe Illustrator 16.0.0, SVG Export Plug-In . SVG Version: 6.00 Build 0)  -->
<!DOCTYPE svg PUBLIC "-//W3C//DTD SVG 1.1//EN" "http://www.w3.org/Graphics/SVG/1.1/DTD/svg11.dtd">
<svg version="1.1" id="Capa_1" xmlns="http://www.w3.org/2000/svg" xmlns:xlink="http://www.w3.org/1999/xlink" x="0px" y="0px"
	 width="394.4px" height="394.4px" viewBox="0 0 394.4 394.4" style="enable-background:new 0 0 394.4 394.4;" xml:space="preserve"
	>
<g>
	<path d="M271.32,266.961c4.365,6.113,2.944,14.606-3.176,18.966c-17.789,12.688-38.692,19.4-60.459,19.4
		c-46.695,0-86.353-31.124-100.333-74.12H88.4c-7.507,0-13.6-6.093-13.6-13.6c0-7.508,6.093-13.601,13.6-13.601h13.858
		c-0.136-2.258-0.34-4.501-0.34-6.8c0-2.298,0.197-4.542,0.34-6.8H88.4c-7.507,0-13.6-6.093-13.6-13.6s6.093-13.6,13.6-13.6h18.958
		c13.981-42.997,53.639-74.12,100.334-74.12c21.76,0,42.663,6.705,60.459,19.4c6.113,4.359,7.534,12.852,3.176,18.965
		c-4.359,6.1-12.859,7.548-18.966,3.175c-13.157-9.377-28.601-14.334-44.662-14.334c-31.524,0-58.697,19.264-71.203,46.92H197.2
		c7.507,0,13.6,6.093,13.6,13.6c0,7.507-6.093,13.6-13.6,13.6h-67.749c-0.184,2.251-0.333,4.502-0.333,6.8
		c0,2.299,0.149,4.549,0.333,6.8H197.2c7.507,0,13.6,6.093,13.6,13.601c0,7.507-6.093,13.6-13.6,13.6h-60.71
		c12.505,27.655,39.678,46.92,71.203,46.92c16.062,0,31.512-4.957,44.663-14.334C258.475,259.399,266.968,260.849,271.32,266.961z
		 M394.4,197.2c0,108.909-88.291,197.2-197.2,197.2C88.292,394.4,0,306.109,0,197.2C0,88.292,88.292,0,197.2,0
		C306.109,0,394.4,88.292,394.4,197.2z M362.005,197.2c0-91.018-73.787-164.805-164.805-164.805
		c-91.018,0-164.805,73.787-164.805,164.805c0,91.018,73.787,164.805,164.805,164.805
		C288.218,362.005,362.005,288.218,362.005,197.2z"/>
</g>
<g>
</g>
<g>
</g>
<g>
</g>
<g>
</g>
<g>
</g>
<g>
</g>
<g>
</g>
<g>
</g>
<g>
</g>
<g>
</g>
<g>
</g>
<g>
</g>
<g>
</g>
<g>
</g>
<g>
</g>
</svg>
