<?xml version="1.0" encoding="iso-8859-1"?>
<!-- Generator: Adobe Illustrator 16.0.0, SVG Export Plug-In . SVG Version: 6.00 Build 0)  -->
<!DOCTYPE svg PUBLIC "-//W3C//DTD SVG 1.1//EN" "http://www.w3.org/Graphics/SVG/1.1/DTD/svg11.dtd">
<svg version="1.1" id="Capa_1" xmlns="http://www.w3.org/2000/svg" xmlns:xlink="http://www.w3.org/1999/xlink" x="0px" y="0px"
	 width="612px" height="612px" viewBox="0 0 612 612" style="enable-background:new 0 0 612 612;" xml:space="preserve">
<g>
	<path d="M140.356,76.327c-2.893-3.468-4.164-7.964-3.574-12.446c0.605-4.451,3.058-8.464,6.738-11.038
		C193.245,18.274,251.462,0,311.889,0C463.77,0,592.922,118.51,605.868,269.798c0.395,4.467-1.119,8.902-4.164,12.219
		c-3.043,3.332-7.328,5.225-11.826,5.225H323.215c-4.756,0-9.297-2.134-12.34-5.8L140.356,76.327z M579.325,324.76H297.566
		L117.404,108.016c-2.876-3.468-7.07-5.557-11.566-5.784c-4.513-0.273-8.889,1.469-12.083,4.633
		C37.216,162.796,6.071,237.335,6.071,316.734C6.071,479.547,138.541,612,301.351,612c151.88,0,281.033-118.51,293.978-269.798
		c0.395-4.468-1.119-8.903-4.162-12.22C588.108,326.653,583.821,324.76,579.325,324.76z"/>
</g>
<g>
</g>
<g>
</g>
<g>
</g>
<g>
</g>
<g>
</g>
<g>
</g>
<g>
</g>
<g>
</g>
<g>
</g>
<g>
</g>
<g>
</g>
<g>
</g>
<g>
</g>
<g>
</g>
<g>
</g>
</svg>
